<svg id="svg" version="1.1" xmlns="http://www.w3.org/2000/svg" xmlns:xlink="http://www.w3.org/1999/xlink" width="400" height="487.5621890547264" viewBox="0, 0, 400,487.5621890547264"><g id="svgg"><path id="path0" d="M249.215 2.032 C 247.614 3.649,247.229 4.400,248.000 4.400 C 248.220 4.400,248.400 4.206,248.400 3.969 C 248.400 3.458,250.267 1.538,251.400 0.885 C 252.081 0.493,252.098 0.423,251.515 0.412 C 251.139 0.405,250.104 1.134,249.215 2.032 M246.400 8.600 C 246.400 9.810,246.580 10.800,246.800 10.800 C 247.020 10.800,247.200 9.810,247.200 8.600 C 247.200 7.390,247.020 6.400,246.800 6.400 C 246.580 6.400,246.400 7.390,246.400 8.600 M247.600 12.560 C 247.600 12.721,247.777 13.183,247.993 13.587 C 248.305 14.171,344.491 110.538,348.366 114.149 C 348.935 114.679,352.617 118.372,356.549 122.356 C 360.480 126.340,363.900 129.600,364.148 129.600 C 364.396 129.600,338.319 103.282,306.199 71.116 C 274.080 38.950,247.755 12.550,247.700 12.450 C 247.645 12.349,247.600 12.399,247.600 12.560 M347.200 87.499 C 347.200 87.663,359.035 99.640,373.500 114.113 L 399.800 140.428 330.281 209.861 C 292.045 248.050,260.849 279.382,260.956 279.489 C 261.322 279.855,400.000 140.926,400.000 140.193 C 400.000 139.556,348.075 87.200,347.443 87.200 C 347.309 87.200,347.200 87.334,347.200 87.499 M87.105 129.883 C 87.602 129.979,88.322 129.975,88.705 129.875 C 89.087 129.775,88.680 129.696,87.800 129.701 C 86.920 129.705,86.607 129.787,87.105 129.883 M82.000 130.400 C 82.000 130.901,82.424 130.901,83.200 130.400 C 83.685 130.086,83.628 130.011,82.900 130.006 C 82.405 130.003,82.000 130.180,82.000 130.400 M78.400 130.800 C 78.400 131.020,78.670 131.200,79.000 131.200 C 79.330 131.200,79.600 131.020,79.600 130.800 C 79.600 130.580,79.330 130.400,79.000 130.400 C 78.670 130.400,78.400 130.580,78.400 130.800 M75.400 131.200 C 75.260 131.427,75.596 131.600,76.176 131.600 C 76.739 131.600,77.200 131.420,77.200 131.200 C 77.200 130.980,76.851 130.800,76.424 130.800 C 75.997 130.800,75.536 130.980,75.400 131.200 M71.120 132.480 C 71.493 132.853,71.707 132.853,72.080 132.480 C 72.453 132.107,72.347 132.000,71.600 132.000 C 70.853 132.000,70.747 132.107,71.120 132.480 M62.800 134.800 C 62.800 135.020,63.070 135.200,63.400 135.200 C 63.730 135.200,64.000 135.020,64.000 134.800 C 64.000 134.580,63.730 134.400,63.400 134.400 C 63.070 134.400,62.800 134.580,62.800 134.800 M58.900 136.099 C 58.185 136.328,57.600 136.670,57.600 136.858 C 57.600 137.280,58.162 137.305,58.567 136.900 C 58.732 136.735,58.987 136.584,59.133 136.564 C 59.280 136.545,59.850 136.331,60.400 136.090 C 61.659 135.537,60.632 135.543,58.900 136.099 M56.013 137.491 C 55.489 138.082,55.503 138.123,56.146 137.876 C 56.542 137.724,56.941 137.600,57.033 137.600 C 57.125 137.600,57.200 137.420,57.200 137.200 C 57.200 136.612,56.681 136.739,56.013 137.491 M52.584 138.827 C 52.439 139.061,52.402 139.335,52.503 139.436 C 52.782 139.715,54.000 139.163,54.000 138.757 C 54.000 138.256,52.903 138.310,52.584 138.827 M48.400 141.161 C 48.400 141.359,47.831 141.720,47.135 141.963 C 46.439 142.205,45.988 142.522,46.133 142.666 C 46.277 142.810,47.026 142.589,47.798 142.173 C 49.154 141.443,49.623 140.800,48.800 140.800 C 48.580 140.800,48.400 140.962,48.400 141.161 M45.200 143.106 C 45.200 143.274,44.480 143.723,43.600 144.104 C 42.720 144.486,42.000 144.956,42.000 145.150 C 42.000 145.344,41.456 145.728,40.791 146.004 C 40.125 146.279,39.450 146.706,39.291 146.952 C 38.991 147.414,36.575 149.200,36.250 149.200 C 36.008 149.200,34.384 150.573,31.874 152.900 C 30.747 153.945,30.019 154.800,30.257 154.800 C 30.495 154.800,31.524 154.022,32.544 153.072 C 33.565 152.122,34.400 151.408,34.400 151.487 C 34.400 151.565,35.444 150.768,36.720 149.715 C 39.569 147.363,40.382 146.772,43.300 144.933 C 45.263 143.696,46.145 142.800,45.400 142.800 C 45.290 142.800,45.200 142.938,45.200 143.106 M88.600 147.600 C 88.448 147.847,89.129 148.000,90.376 148.000 C 91.489 148.000,92.400 147.820,92.400 147.600 C 92.400 147.380,91.601 147.200,90.624 147.200 C 89.647 147.200,88.736 147.380,88.600 147.600 M354.651 160.496 C 347.363 167.808,341.758 173.523,342.195 173.196 C 343.449 172.257,368.499 147.200,368.184 147.200 C 368.029 147.200,361.939 153.183,354.651 160.496 M84.400 148.000 C 83.934 148.301,84.051 148.389,84.924 148.394 C 85.572 148.397,85.943 148.231,85.800 148.000 C 85.493 147.503,85.169 147.503,84.400 148.000 M76.000 149.600 C 76.000 149.820,76.270 150.000,76.600 150.000 C 76.930 150.000,77.200 149.820,77.200 149.600 C 77.200 149.380,76.930 149.200,76.600 149.200 C 76.270 149.200,76.000 149.380,76.000 149.600 M69.200 151.600 C 69.200 151.820,69.470 152.000,69.800 152.000 C 70.130 152.000,70.400 151.820,70.400 151.600 C 70.400 151.380,70.130 151.200,69.800 151.200 C 69.470 151.200,69.200 151.380,69.200 151.600 M63.612 153.584 C 63.288 153.789,63.127 154.061,63.254 154.188 C 63.569 154.503,64.800 154.001,64.800 153.557 C 64.800 153.101,64.360 153.111,63.612 153.584 M59.880 155.478 C 58.385 156.257,57.228 156.961,57.309 157.043 C 57.543 157.276,60.800 155.914,60.800 155.583 C 60.800 155.420,61.250 155.174,61.800 155.036 C 62.350 154.898,62.800 154.608,62.800 154.392 C 62.800 153.912,63.112 153.796,59.880 155.478 M54.100 158.656 C 53.165 159.220,52.400 159.871,52.400 160.103 C 52.400 160.334,52.715 160.239,53.101 159.890 C 53.486 159.541,54.296 159.068,54.901 158.838 C 55.505 158.608,56.000 158.235,56.000 158.010 C 56.000 157.487,56.091 157.456,54.100 158.656 M23.662 161.058 C 22.706 162.048,22.039 162.972,22.179 163.112 C 22.440 163.373,25.598 160.039,25.599 159.500 C 25.600 159.061,25.557 159.095,23.662 161.058 M48.984 162.027 C 48.839 162.261,48.816 162.549,48.933 162.667 C 49.220 162.953,50.000 162.448,50.000 161.976 C 50.000 161.465,49.309 161.499,48.984 162.027 M47.500 163.232 C 46.748 163.670,46.552 164.400,47.186 164.400 C 47.398 164.400,47.765 164.040,48.000 163.600 C 48.487 162.690,48.462 162.672,47.500 163.232 M20.500 164.670 C 20.005 165.015,19.600 165.535,19.600 165.826 C 19.600 166.117,19.206 166.631,18.724 166.968 C 18.242 167.306,17.971 167.704,18.120 167.853 C 18.409 168.142,20.008 166.570,21.061 164.964 C 21.791 163.849,21.726 163.814,20.500 164.670 M44.200 166.000 C 43.568 166.660,43.219 167.194,43.425 167.187 C 43.887 167.172,44.818 166.432,45.549 165.500 C 46.464 164.333,45.429 164.717,44.200 166.000 M17.184 169.230 C 16.939 169.687,16.393 170.407,15.970 170.830 C 15.103 171.697,14.967 172.400,15.667 172.400 C 15.923 172.400,16.028 172.295,15.900 172.167 C 15.772 172.038,15.967 171.601,16.333 171.195 C 17.990 169.362,18.576 168.400,18.038 168.400 C 17.812 168.400,17.428 168.774,17.184 169.230 M40.048 170.000 C 39.141 170.880,38.534 171.600,38.700 171.600 C 38.865 171.599,39.698 170.879,40.552 170.000 C 42.565 167.924,42.187 167.924,40.048 170.000 M36.528 173.702 C 35.166 175.214,34.975 175.805,36.117 174.968 C 37.116 174.236,37.781 173.248,37.478 172.944 C 37.400 172.867,36.973 173.207,36.528 173.702 M13.214 175.174 C 12.555 176.405,12.732 176.601,13.600 175.600 C 14.505 174.556,14.559 174.400,14.014 174.400 C 13.802 174.400,13.442 174.748,13.214 175.174 M34.111 176.500 C 33.120 177.782,33.124 178.096,34.122 177.368 C 35.182 176.594,35.498 176.000,34.849 176.000 C 34.656 176.000,34.324 176.225,34.111 176.500 M11.405 178.249 C 10.566 180.259,10.643 180.368,11.800 178.800 C 12.870 177.349,13.037 176.800,12.405 176.800 C 12.188 176.800,11.738 177.452,11.405 178.249 M31.434 180.064 C 30.775 180.995,30.515 181.630,30.834 181.526 C 31.145 181.424,31.635 180.859,31.922 180.270 C 32.209 179.682,32.614 179.200,32.822 179.200 C 33.030 179.200,33.200 179.020,33.200 178.800 C 33.200 178.004,32.577 178.450,31.434 180.064 M335.275 179.800 C 334.797 180.350,334.563 180.800,334.757 180.800 C 334.950 180.800,335.403 180.350,335.763 179.800 C 336.124 179.250,336.357 178.800,336.281 178.800 C 336.206 178.800,335.753 179.250,335.275 179.800 M9.833 181.057 C 9.499 181.930,9.943 182.336,10.416 181.588 C 10.889 180.840,10.899 180.400,10.443 180.400 C 10.246 180.400,9.972 180.696,9.833 181.057 M29.481 183.039 C 29.086 183.568,28.945 184.000,29.167 184.000 C 29.572 184.000,30.582 182.444,30.332 182.205 C 30.260 182.135,29.877 182.511,29.481 183.039 M8.576 184.153 C 8.432 184.729,8.153 185.200,7.957 185.200 C 7.760 185.200,7.600 185.470,7.600 185.800 C 7.600 186.926,8.265 186.403,8.720 184.920 C 8.970 184.107,9.099 183.365,9.006 183.273 C 8.914 183.181,8.721 183.577,8.576 184.153 M28.243 185.033 C 28.093 185.423,28.182 185.606,28.475 185.508 C 29.073 185.309,29.402 184.400,28.876 184.400 C 28.661 184.400,28.376 184.685,28.243 185.033 M26.555 188.288 C 25.920 189.560,25.306 190.690,25.192 190.800 C 24.961 191.022,24.000 193.133,24.000 193.419 C 24.000 194.249,24.827 193.240,25.409 191.700 C 25.804 190.655,26.258 189.710,26.418 189.600 C 26.802 189.337,28.054 186.321,27.860 186.127 C 27.778 186.044,27.190 187.017,26.555 188.288 M6.100 189.823 C 5.520 190.453,5.441 191.200,5.953 191.200 C 6.261 191.200,6.910 189.565,6.684 189.358 C 6.638 189.315,6.375 189.525,6.100 189.823 M3.600 196.600 C 3.600 196.930,3.780 197.200,4.000 197.200 C 4.220 197.200,4.400 196.930,4.400 196.600 C 4.400 196.270,4.220 196.000,4.000 196.000 C 3.780 196.000,3.600 196.270,3.600 196.600 M22.224 197.447 C 21.981 198.415,22.175 199.159,22.567 198.766 C 22.989 198.344,23.251 196.400,22.887 196.400 C 22.667 196.400,22.368 196.871,22.224 197.447 M3.200 198.200 C 3.200 198.530,3.380 198.800,3.600 198.800 C 3.820 198.800,4.000 198.530,4.000 198.200 C 4.000 197.870,3.820 197.600,3.600 197.600 C 3.380 197.600,3.200 197.870,3.200 198.200 M20.400 203.000 C 20.400 203.330,20.580 203.600,20.800 203.600 C 21.020 203.600,21.200 203.330,21.200 203.000 C 21.200 202.670,21.020 202.400,20.800 202.400 C 20.580 202.400,20.400 202.670,20.400 203.000 M1.600 204.200 C 1.600 204.530,1.780 204.800,2.000 204.800 C 2.220 204.800,2.400 204.530,2.400 204.200 C 2.400 203.870,2.220 203.600,2.000 203.600 C 1.780 203.600,1.600 203.870,1.600 204.200 M20.000 204.600 C 20.000 204.930,20.180 205.200,20.400 205.200 C 20.620 205.200,20.800 204.930,20.800 204.600 C 20.800 204.270,20.620 204.000,20.400 204.000 C 20.180 204.000,20.000 204.270,20.000 204.600 M1.200 206.800 C 1.200 207.240,1.380 207.600,1.600 207.600 C 1.820 207.600,2.000 207.240,2.000 206.800 C 2.000 206.360,1.820 206.000,1.600 206.000 C 1.380 206.000,1.200 206.360,1.200 206.800 M18.612 211.317 C 18.441 211.712,18.413 212.147,18.551 212.284 C 18.957 212.690,19.284 212.120,19.097 211.331 C 18.932 210.633,18.910 210.632,18.612 211.317 M0.493 213.600 C 0.493 214.370,0.575 214.685,0.676 214.300 C 0.776 213.915,0.776 213.285,0.676 212.900 C 0.575 212.515,0.493 212.830,0.493 213.600 M18.000 215.200 C 18.000 215.640,18.180 216.000,18.400 216.000 C 18.620 216.000,18.800 215.640,18.800 215.200 C 18.800 214.760,18.620 214.400,18.400 214.400 C 18.180 214.400,18.000 214.760,18.000 215.200 M0.198 349.400 C 0.198 421.560,0.244 451.020,0.300 414.868 C 0.356 378.715,0.356 319.675,0.300 283.668 C 0.244 247.660,0.198 277.240,0.198 349.400 M17.798 349.800 C 17.798 421.520,17.844 450.800,17.900 414.868 C 17.956 378.935,17.956 320.255,17.900 284.468 C 17.844 248.680,17.798 278.080,17.798 349.800 M256.429 258.026 C 250.164 264.289,248.646 266.000,249.356 266.000 C 249.622 266.000,264.400 251.313,264.400 251.049 C 264.400 250.241,262.927 251.530,256.429 258.026 M247.867 267.067 C 247.484 267.449,247.538 268.000,247.957 268.000 C 248.154 268.000,248.418 267.730,248.545 267.400 C 248.779 266.790,248.353 266.581,247.867 267.067 M246.667 270.267 C 246.241 270.693,246.359 274.000,246.800 274.000 C 247.020 274.000,247.200 273.100,247.200 272.000 C 247.200 269.972,247.144 269.789,246.667 270.267 M247.600 276.397 C 247.600 276.960,250.495 280.000,251.032 280.000 C 251.308 280.000,251.595 280.184,251.670 280.409 C 251.745 280.635,252.508 280.933,253.365 281.072 C 254.552 281.264,254.851 281.206,254.617 280.828 C 254.448 280.554,253.970 280.419,253.555 280.528 C 253.140 280.636,252.800 280.562,252.800 280.363 C 252.800 280.163,252.526 280.000,252.191 280.000 C 251.857 280.000,250.687 279.113,249.591 278.029 C 248.496 276.946,247.600 276.211,247.600 276.397 M259.212 279.984 C 258.888 280.189,258.744 280.478,258.893 280.626 C 259.041 280.774,259.453 280.604,259.810 280.248 C 260.513 279.544,260.157 279.387,259.212 279.984 M256.600 280.800 C 256.464 281.020,256.723 281.200,257.176 281.200 C 257.629 281.200,258.000 281.020,258.000 280.800 C 258.000 280.580,257.741 280.400,257.424 280.400 C 257.107 280.400,256.736 280.580,256.600 280.800 M0.589 482.200 C 0.857 483.401,1.444 484.299,1.748 483.973 C 1.837 483.878,1.553 483.170,1.116 482.400 C 0.323 481.002,0.322 481.002,0.589 482.200 M2.400 485.056 C 2.400 485.396,3.700 486.371,4.175 486.387 C 4.382 486.394,4.164 486.040,3.692 485.600 C 2.811 484.779,2.400 484.606,2.400 485.056 M13.600 485.800 C 12.855 486.350,12.378 486.800,12.542 486.800 C 13.159 486.800,15.200 485.563,15.200 485.190 C 15.200 484.646,15.125 484.675,13.600 485.800 " stroke="none" fill="#fff" fill-rule="evenodd"></path><path id="path1" d="M252.600 0.950 C 247.798 3.221,246.129 8.124,248.586 12.742 C 248.896 13.324,275.170 39.810,306.974 71.599 C 338.778 103.389,364.800 129.625,364.800 129.901 C 364.800 130.303,336.951 130.402,225.242 130.398 C 148.484 130.396,85.386 130.507,85.022 130.647 C 84.659 130.786,83.650 130.805,82.781 130.688 C 81.911 130.572,81.200 130.620,81.200 130.797 C 81.200 131.196,74.125 132.524,73.630 132.218 C 73.431 132.096,73.206 132.182,73.130 132.410 C 73.054 132.638,72.158 132.864,71.138 132.912 C 70.118 132.960,69.357 133.122,69.447 133.270 C 69.537 133.419,68.573 133.829,67.305 134.183 C 40.549 141.639,12.731 168.247,5.917 192.900 C 5.689 193.725,5.361 194.400,5.189 194.400 C 5.016 194.400,4.969 194.760,5.084 195.200 C 5.199 195.640,5.131 196.000,4.932 196.000 C 4.734 196.000,4.549 196.315,4.521 196.700 C 4.493 197.085,3.915 199.560,3.236 202.200 C 2.557 204.840,2.002 207.405,2.001 207.900 C 2.000 208.395,1.826 208.800,1.613 208.800 C 1.399 208.800,1.318 209.041,1.431 209.336 C 1.544 209.631,1.457 211.566,1.236 213.636 C 0.626 219.369,0.659 479.637,1.270 481.676 C 3.094 487.765,12.026 488.646,15.859 483.115 L 17.000 481.468 17.236 349.434 C 17.366 276.815,17.580 216.557,17.713 215.528 C 18.157 212.073,19.283 205.804,19.531 205.400 C 19.667 205.180,19.806 204.814,19.841 204.587 C 20.025 203.383,21.691 197.769,21.970 197.414 C 22.149 197.186,22.523 196.295,22.801 195.434 C 26.988 182.447,40.898 166.137,54.935 157.754 C 60.209 154.605,72.247 149.611,73.179 150.187 C 73.410 150.330,73.600 150.285,73.600 150.087 C 73.600 149.750,77.477 148.634,78.800 148.590 C 79.131 148.579,79.581 148.459,79.800 148.324 C 80.782 147.718,91.769 146.836,92.257 147.324 C 92.737 147.803,368.000 147.656,368.000 147.176 C 368.000 146.943,368.201 146.877,368.447 147.029 C 368.714 147.194,344.613 171.594,308.665 207.553 C 273.787 242.442,248.233 268.305,247.953 269.000 C 245.243 275.736,252.765 282.883,259.142 279.630 C 260.044 279.169,288.559 251.017,330.026 209.647 L 399.400 140.434 330.200 71.209 C 280.821 21.812,260.511 1.746,259.293 1.153 C 256.726 -0.097,254.929 -0.151,252.600 0.950 " stroke="none" fill="#fff" fill-rule="evenodd"></path><path id="path2" d="M252.900 0.412 C 251.561 0.951,251.811 1.224,253.200 0.740 C 253.860 0.510,254.400 0.249,254.400 0.161 C 254.400 -0.076,253.913 0.005,252.900 0.412 M247.354 6.177 C 247.232 6.494,247.203 7.079,247.289 7.477 C 247.387 7.928,247.524 7.712,247.654 6.900 C 247.871 5.538,247.730 5.196,247.354 6.177 M247.417 10.385 C 247.626 12.082,247.857 12.735,248.118 12.367 C 248.183 12.275,248.003 11.390,247.717 10.400 L 247.197 8.600 247.417 10.385 M250.200 15.200 C 251.059 16.080,251.852 16.800,251.962 16.800 C 252.072 16.800,251.459 16.080,250.600 15.200 C 249.741 14.320,248.948 13.600,248.838 13.600 C 248.728 13.600,249.341 14.320,250.200 15.200 M255.000 20.000 C 256.528 21.540,257.869 22.800,257.979 22.800 C 258.089 22.800,256.928 21.540,255.400 20.000 C 253.872 18.460,252.531 17.200,252.421 17.200 C 252.311 17.200,253.472 18.460,255.000 20.000 M262.383 27.300 C 263.364 28.345,264.219 29.200,264.283 29.200 C 264.584 29.200,264.266 28.841,262.500 27.183 L 260.600 25.400 262.383 27.300 M268.383 33.300 C 269.364 34.345,270.219 35.200,270.283 35.200 C 270.584 35.200,270.266 34.841,268.500 33.183 L 266.600 31.400 268.383 33.300 M318.195 59.100 C 321.492 62.455,324.265 65.200,324.357 65.200 C 324.449 65.200,324.226 64.870,323.861 64.468 C 323.497 64.065,323.289 63.615,323.399 63.468 C 323.510 63.320,323.474 63.296,323.319 63.414 C 323.165 63.532,320.600 61.237,317.619 58.314 L 312.200 53.000 318.195 59.100 M327.400 68.400 C 328.928 69.940,330.269 71.200,330.379 71.200 C 330.489 71.200,329.328 69.940,327.800 68.400 C 326.272 66.860,324.931 65.600,324.821 65.600 C 324.711 65.600,325.872 66.860,327.400 68.400 M338.996 79.903 C 343.614 84.576,347.473 88.400,347.571 88.400 C 347.669 88.400,347.263 87.893,346.669 87.272 C 346.075 86.652,345.726 85.993,345.894 85.808 C 346.062 85.623,346.001 85.585,345.758 85.724 C 345.206 86.038,343.482 84.263,343.896 83.806 C 344.063 83.622,344.001 83.585,343.759 83.723 C 343.516 83.862,341.865 82.495,340.089 80.687 C 338.313 78.879,335.452 76.051,333.730 74.403 C 332.009 72.755,334.378 75.230,338.996 79.903 M375.953 116.854 C 392.481 133.454,399.214 140.467,398.994 140.854 C 398.740 141.299,398.784 141.306,399.231 140.890 C 399.686 140.467,395.763 136.381,376.190 116.890 L 352.601 93.400 375.953 116.854 M90.800 130.000 C 89.590 130.148,150.790 130.296,226.800 130.329 C 316.146 130.367,364.788 130.251,364.400 130.000 C 363.716 129.558,94.408 129.558,90.800 130.000 M84.200 130.400 C 84.064 130.620,84.223 130.800,84.553 130.800 C 84.883 130.800,85.264 130.620,85.400 130.400 C 85.536 130.180,85.377 130.000,85.047 130.000 C 84.717 130.000,84.336 130.180,84.200 130.400 M77.000 131.619 C 76.442 131.871,76.685 131.907,77.800 131.738 C 78.680 131.604,79.475 131.428,79.567 131.347 C 79.910 131.044,77.768 131.271,77.000 131.619 M52.300 139.720 C 51.695 139.959,51.200 140.304,51.200 140.487 C 51.200 140.671,51.740 140.541,52.400 140.200 C 53.291 139.739,54.207 138.942,53.500 139.243 C 53.445 139.266,52.905 139.481,52.300 139.720 M39.300 147.688 C 38.805 147.927,38.400 148.279,38.400 148.470 C 38.400 148.662,38.850 148.524,39.400 148.163 C 40.867 147.202,40.816 146.957,39.300 147.688 M85.800 147.600 C 85.664 147.820,85.923 148.000,86.376 148.000 C 86.829 148.000,87.200 147.820,87.200 147.600 C 87.200 147.380,86.941 147.200,86.624 147.200 C 86.307 147.200,85.936 147.380,85.800 147.600 M82.200 148.000 C 82.064 148.220,82.223 148.400,82.553 148.400 C 82.883 148.400,83.264 148.220,83.400 148.000 C 83.536 147.780,83.377 147.600,83.047 147.600 C 82.717 147.600,82.336 147.780,82.200 148.000 M28.000 157.400 C 27.028 158.390,26.323 159.200,26.433 159.200 C 26.543 159.200,27.428 158.390,28.400 157.400 C 29.372 156.410,30.077 155.600,29.967 155.600 C 29.857 155.600,28.972 156.410,28.000 157.400 M41.175 168.308 L 39.400 170.199 41.194 168.600 C 42.180 167.720,43.065 166.955,43.161 166.900 C 43.256 166.845,43.247 166.714,43.142 166.608 C 43.036 166.503,42.151 167.268,41.175 168.308 M37.800 171.600 C 37.168 172.260,36.819 172.790,37.025 172.778 C 37.378 172.757,39.439 170.400,39.105 170.400 C 39.020 170.400,38.432 170.940,37.800 171.600 M6.663 189.683 C 6.338 190.925,6.585 190.989,7.126 189.802 C 7.377 189.251,7.428 188.800,7.238 188.800 C 7.048 188.800,6.789 189.197,6.663 189.683 M287.505 228.300 C 266.443 249.365,249.080 266.780,248.921 267.000 C 248.762 267.220,266.040 250.030,287.316 228.801 C 323.252 192.944,326.179 190.000,325.900 190.000 C 325.845 190.000,308.567 207.235,287.505 228.300 M21.644 198.100 C 20.955 199.940,20.710 200.991,21.044 200.673 C 21.424 200.311,22.413 197.200,22.148 197.200 C 22.056 197.200,21.829 197.605,21.644 198.100 M2.649 203.015 C 2.512 203.373,2.415 203.966,2.434 204.333 C 2.453 204.700,2.627 204.469,2.821 203.820 C 3.198 202.558,3.065 201.933,2.649 203.015 M1.000 211.600 C 0.850 212.073,0.817 212.550,0.927 212.660 C 1.037 212.770,1.250 212.473,1.400 212.000 C 1.550 211.527,1.583 211.050,1.473 210.940 C 1.363 210.830,1.150 211.127,1.000 211.600 M0.654 215.554 C 0.500 216.518,0.458 217.391,0.561 217.494 C 0.830 217.763,1.315 214.945,1.107 214.322 C 1.012 214.036,0.808 214.590,0.654 215.554 M17.456 217.684 C 17.321 218.188,17.253 277.100,17.304 348.600 L 17.397 478.600 17.598 347.800 C 17.709 275.860,17.778 216.948,17.751 216.884 C 17.724 216.820,17.591 217.180,17.456 217.684 M0.498 349.876 C 0.444 422.078,0.535 481.236,0.700 481.338 C 0.968 481.504,0.967 354.904,0.698 256.000 C 0.642 235.430,0.552 277.674,0.498 349.876 M247.417 273.985 C 247.626 275.682,247.857 276.335,248.118 275.967 C 248.183 275.875,248.003 274.990,247.717 274.000 L 247.197 272.200 247.417 273.985 M4.976 486.178 C 5.404 486.520,6.034 486.786,6.376 486.768 C 6.915 486.741,6.918 486.707,6.400 486.514 C 6.070 486.392,5.440 486.126,5.000 485.924 C 4.213 485.562,4.212 485.566,4.976 486.178 " stroke="none" fill="#fff" fill-rule="evenodd"></path><path id="path3" d="M28.930 155.807 C 27.814 157.081,28.154 157.078,29.673 155.800 C 30.327 155.250,30.623 154.803,30.331 154.807 C 30.039 154.811,29.409 155.261,28.930 155.807 M26.406 158.382 C 25.859 158.802,25.514 159.247,25.638 159.371 C 25.762 159.495,26.286 159.148,26.801 158.598 C 27.917 157.411,27.772 157.332,26.406 158.382 M41.570 168.288 C 40.858 169.086,40.813 169.219,41.398 168.788 C 42.672 167.850,43.286 167.200,42.898 167.200 C 42.701 167.200,42.103 167.690,41.570 168.288 M337.832 177.250 C 337.409 177.661,337.155 178.089,337.268 178.201 C 337.380 178.313,337.799 178.043,338.200 177.600 C 339.141 176.560,338.838 176.272,337.832 177.250 M333.592 181.410 C 332.819 182.341,333.371 182.517,334.198 181.602 C 334.597 181.161,334.738 180.800,334.511 180.800 C 334.284 180.800,333.870 181.074,333.592 181.410 M331.800 183.200 C 331.399 183.643,331.162 184.095,331.272 184.205 C 331.382 184.315,331.799 184.043,332.200 183.600 C 332.601 183.157,332.838 182.705,332.728 182.595 C 332.618 182.485,332.201 182.757,331.800 183.200 M308.361 206.754 C 296.129 218.989,285.981 229.246,285.808 229.546 C 285.636 229.847,295.730 219.912,308.238 207.470 C 320.746 195.027,330.895 184.771,330.790 184.678 C 330.686 184.585,320.592 194.519,308.361 206.754 M316.189 223.700 L 313.400 226.600 316.300 223.811 C 318.994 221.220,319.383 220.800,319.089 220.800 C 319.028 220.800,317.723 222.105,316.189 223.700 M310.189 229.700 L 307.400 232.600 310.300 229.811 C 312.994 227.220,313.383 226.800,313.089 226.800 C 313.028 226.800,311.723 228.105,310.189 229.700 M283.562 231.507 C 282.772 232.328,281.969 233.269,281.779 233.597 C 281.420 234.216,283.785 231.902,284.749 230.690 C 285.680 229.520,285.073 229.938,283.562 231.507 M304.587 235.300 L 302.200 237.800 304.700 235.413 C 306.075 234.099,307.200 232.974,307.200 232.913 C 307.200 232.617,306.805 232.978,304.587 235.300 M275.100 239.915 C 272.955 242.065,271.200 243.952,271.200 244.107 C 271.200 244.387,277.693 238.003,278.749 236.685 C 279.951 235.185,278.819 236.186,275.100 239.915 M254.616 280.827 C 254.905 281.293,256.280 281.317,256.563 280.860 C 256.678 280.674,256.235 280.506,255.579 280.487 C 254.923 280.468,254.489 280.621,254.616 280.827 " stroke="none" fill="#fff" fill-rule="evenodd"></path><path id="path4" d="M264.860 5.580 C 264.948 5.844,265.150 6.047,265.310 6.030 C 265.788 5.981,265.696 5.432,265.180 5.260 C 264.916 5.172,264.772 5.316,264.860 5.580 M270.800 11.751 C 270.800 11.834,271.070 12.126,271.400 12.400 C 271.891 12.808,272.000 12.780,272.000 12.249 C 272.000 11.892,271.730 11.600,271.400 11.600 C 271.070 11.600,270.800 11.668,270.800 11.751 M273.190 13.981 C 273.437 14.444,273.811 14.717,274.020 14.588 C 274.572 14.246,274.497 14.080,273.570 13.584 C 272.808 13.176,272.777 13.209,273.190 13.981 M274.800 15.368 C 275.130 15.791,289.133 29.831,305.917 46.568 C 322.702 63.306,338.801 79.381,341.692 82.292 C 344.584 85.203,347.020 87.514,347.105 87.428 C 347.259 87.274,276.372 16.308,274.938 15.180 C 274.247 14.637,274.238 14.649,274.800 15.368 M265.100 250.033 C 264.715 250.455,264.552 250.800,264.738 250.800 C 264.924 250.800,265.402 250.440,265.800 250.000 C 266.198 249.560,266.361 249.215,266.162 249.233 C 265.963 249.252,265.485 249.612,265.100 250.033 " stroke="none" fill="#fff" fill-rule="evenodd"></path></g></svg>